<?xml version="1.0" encoding="UTF-8"?> <svg xmlns="http://www.w3.org/2000/svg" viewBox="0 0 184 64"><defs><radialGradient gradientUnits="objectBoundingBox" cx="90.484%" cy="6.371%" fx="90.484%" fy="6.371%" r="143.125%" gradientTransform="matrix(-.6979 .67606 -.64032 -.73685 1.577 -.501)" id="a"><stop offset="0%" stop-color="#1D6A98"></stop><stop offset="100%" stop-color="#56A59E"></stop></radialGradient><radialGradient gradientUnits="objectBoundingBox" cx="88.352%" cy="11.847%" fx="88.352%" fy="11.847%" r="462.619%" gradientTransform="scale(-.2068 -1) rotate(-4.672 -4.599 63.195)" id="b"><stop offset="0%" stop-color="#61B345"></stop><stop offset="100%" stop-color="#9FC83B"></stop></radialGradient><radialGradient gradientUnits="objectBoundingBox" cx="75.535%" cy="62.351%" fx="75.535%" fy="62.351%" r="332.671%" gradientTransform="matrix(-1 0 0 -.65815 1.51 1.034)" id="c"><stop offset="0%" stop-color="#61B345"></stop><stop offset="100%" stop-color="#9FC83B"></stop></radialGradient><radialGradient gradientUnits="objectBoundingBox" cx="31.593%" cy="11.895%" fx="31.593%" fy="11.895%" r="257.874%" gradientTransform="scale(-1 -.71486) rotate(-60.907 -.243 .514)" id="d"><stop offset="0%" stop-color="#1D6A98"></stop><stop offset="100%" stop-color="#56A59E"></stop></radialGradient></defs><path d="M7.85 22.504 0 43.862 46.31 0 14.663 15.121a13.114 13.114 0 0 0-6.813 7.383" transform="translate(15.232 20.138)" fill="url(#a)"></path><path d="M60.485 0c-.489.326-20.583 8.285-30.797 11.796a13.103 13.103 0 0 1-11.438-1.43L0 0h60.485Z" transform="translate(0 18.553)" fill="url(#b)"></path><path d="M.178 10.205 3.41 0l7.475 16.54-7.794-1.466a3.79 3.79 0 0 1-2.913-4.869" transform="translate(31.02)" fill="url(#c)"></path><path d="M1.112 5.992 5.54 0l12.006 24.546L2.433 14.024a5.676 5.676 0 0 1-1.321-8.032" transform="translate(43.786 34.519)" fill="url(#d)"></path><path d="M99.679 49.495c-.37-.473-1.11-.695-1.672-.695-.65 0-1.553.296-1.553 1.08 0 1.909 4.822.68 4.822 4.35 0 2.337-1.879 3.446-4.038 3.446-1.347 0-2.53-.4-3.52-1.317l1.641-1.804a2.567 2.567 0 0 0 2.012.99c.754 0 1.598-.354 1.598-1.094 0-1.923-4.912-.888-4.912-4.378 0-2.234 1.938-3.403 3.994-3.403 1.184 0 2.323.31 3.21 1.095l-1.582 1.73ZM110.196 48.978h-2.988v-2.042h8.285v2.042h-2.989v8.432h-2.308v-8.432ZM124.812 49.984l-1.272 3.254h2.56l-1.288-3.254Zm-.887-3.048h1.908l4.556 10.474h-2.603l-.903-2.22h-4.068l-.873 2.22h-2.544l4.527-10.474ZM138.925 51.27h1.361c.843 0 1.938-.029 1.938-1.168 0-1.05-.947-1.213-1.79-1.213h-1.509v2.382Zm-2.308-4.334h4.054c2.145 0 3.95.74 3.95 3.18 0 1.465-.785 2.604-2.264 2.87l2.663 4.424h-2.767l-2.19-4.187h-1.138v4.187h-2.308V46.936ZM156.558 49.495c-.37-.473-1.109-.695-1.671-.695-.651 0-1.553.296-1.553 1.08 0 1.909 4.822.68 4.822 4.35 0 2.337-1.879 3.446-4.038 3.446-1.347 0-2.53-.4-3.521-1.317l1.642-1.804a2.567 2.567 0 0 0 2.012.99c.754 0 1.597-.354 1.597-1.094 0-1.923-4.91-.888-4.91-4.378 0-2.234 1.937-3.403 3.993-3.403 1.184 0 2.323.31 3.21 1.095l-1.583 1.73ZM71.002 37.927h2.32c2.91 0 4.179-1.826 4.179-3.868 0-2.228-1.239-3.93-3.87-3.93h-2.63v7.798Zm0-10.026h1.608c3.033 0 4.426-1.393 4.426-3.714 0-1.857-1.114-3.404-3.96-3.404h-2.074V27.9Zm-2.724-9.346h5.478c4.178 0 6.003 2.29 6.003 5.477 0 2.352-1.392 4.178-3.559 4.797v.062c2.352.34 4.023 2.32 4.023 5.353 0 3.002-2.042 5.911-6.745 5.911h-5.2v-21.6ZM89.763 33.068c-.425-.056-1.02-.056-1.673-.056-2.806 0-4.138 1.332-4.138 3.004 0 1.531.793 2.523 2.437 2.523 2.07 0 3.374-1.672 3.374-3.657v-1.814Zm-6.917-6.378a7.7 7.7 0 0 1 4.082-1.19c2.126 0 3.401.907 3.855 1.36.624.624 1.248 1.503 1.248 3.544v7.54c0 .85.057 1.7.112 2.21H89.99l-.142-1.955h-.056c-.652 1.106-1.842 2.154-4.053 2.154-2.382 0-4.167-1.389-4.167-4.166 0-2.807 1.842-4.876 6.803-4.876h1.389v-.652c0-1.077-.085-1.701-.539-2.325-.482-.652-1.417-.907-2.41-.907-1.474 0-2.89.596-3.713 1.503l-.255-2.24ZM112.729 25.698h2.778l-5.102 6.463 7.11 10.039h-2.949l-6.74-9.33h-.058v7.285h-2.727v-21.26h2.727v12.614l4.961-5.81ZM103.455 37.711c-.8.343-1.711.601-2.765.601-2.505 0-4.216-1.9-4.216-5.244 0-3.912 1.772-5.527 4.276-5.527 1.077 0 1.902.195 2.705.565V25.93c-.789-.275-1.785-.43-2.705-.43-4.337 0-6.963 2.891-6.963 7.568 0 4.082 2.26 7.285 6.903 7.285.914 0 1.984-.205 2.765-.448v-2.194ZM129.107 29.373c0 4.881-1.472 7.57-4.144 7.57-2.671 0-4.143-2.689-4.143-7.57 0-4.882 1.472-7.57 4.143-7.57 2.672 0 4.144 2.688 4.144 7.57m-4.144-10.902c-4.103 0-8.489 2.864-8.489 10.902s4.386 10.902 8.49 10.902c4.103 0 8.488-2.864 8.488-10.902s-4.385-10.902-8.489-10.902M150.83 18.465c-3.749 0-4.308 2.595-4.308 4.142v2.704H141v-2.26c0-.968.547-1.568 1.429-1.568.46 0 .88.101 1.305.214l.245.066.163-2.925-.26-.054c-.643-.135-1.526-.32-2.423-.32-3.75 0-4.31 2.596-4.31 4.143v2.704h-2.382v2.935h2.383v11.752H141V28.246h5.523v11.752h3.848V28.246h2.606V25.31h-2.606v-2.26c0-.968.548-1.568 1.43-1.568.46 0 .88.101 1.304.214l.245.066.163-2.925-.259-.054c-.644-.135-1.526-.32-2.424-.32M154.828 23.89h3.96v-3.794h-3.96v3.794ZM154.883 39.998h3.85V25.31h-3.85v14.687ZM177.678 27.83c1.403 0 2.135 1.138 2.177 3.384h-4.517c.049-1.606.682-3.384 2.34-3.384Zm5.917 5.087c0-6.47-3.217-7.828-5.917-7.828-3.581 0-6.082 3.196-6.082 7.773 0 3.557 1.787 7.357 6.803 7.357 2.148 0 3.69-.652 4.35-.93l.134-.058-.199-3.24-.305.225c-.751.555-1.71 1.069-3.62 1.069-2.272 0-3.363-1.113-3.422-3.496h8.258v-.872ZM170.46 36.637c-.525.26-1.511.564-2.267.564-2.431 0-3.883-1.684-3.883-4.505 0-3.088 1.213-4.589 3.71-4.589.902 0 1.736.34 2.433.671l.006.003v-3.22c-.72-.222-1.85-.472-2.847-.472-4.67 0-7.457 2.833-7.457 7.579 0 4.729 2.712 7.551 7.254 7.551 1.296 0 2.347-.211 3.05-.411v-3.171Z" fill="#1A345F"></path></svg> 